<?xml version="1.0" standalone="no"?>
<!DOCTYPE svg PUBLIC "-//W3C//DTD SVG 20010904//EN"
 "http://www.w3.org/TR/2001/REC-SVG-20010904/DTD/svg10.dtd">
<svg version="1.0" xmlns="http://www.w3.org/2000/svg"
 width="512.000000pt" height="512.000000pt" viewBox="0 0 512.000000 512.000000"
 preserveAspectRatio="xMidYMid meet">

<g transform="translate(0.000000,512.000000) scale(0.100000,-0.100000)"
fill="#FFFFFF" stroke="none">
<path d="M1355 5113 c-201 -24 -375 -76 -544 -163 -411 -213 -701 -605 -787
-1065 -18 -94 -19 -171 -19 -1325 0 -1154 1 -1231 19 -1325 115 -617 594
-1096 1211 -1211 94 -18 171 -19 1335 -19 l1235 0 105 23 c463 102 829 377
1039 782 68 130 109 247 143 400 l23 105 0 1235 c0 1164 -1 1241 -19 1335
-107 576 -532 1036 -1093 1185 -182 49 -210 50 -1453 48 -641 0 -1178 -3
-1195 -5z m1565 -1122 c301 -69 525 -217 649 -429 64 -109 111 -272 111 -384
l0 -38 -339 0 -339 0 -6 48 c-19 133 -86 227 -198 277 -113 51 -318 46 -429
-10 -104 -53 -159 -134 -159 -234 0 -156 133 -252 547 -395 202 -70 341 -127
433 -178 192 -108 332 -244 405 -391 58 -119 75 -187 82 -323 12 -237 -59
-420 -221 -572 -125 -116 -284 -191 -498 -234 -153 -30 -471 -33 -623 -4 -492
92 -811 368 -880 762 -8 48 -15 106 -15 130 l0 44 345 0 345 0 0 -45 c0 -69
19 -144 53 -209 58 -110 177 -172 356 -185 272 -20 418 54 450 226 11 54 0
137 -24 187 -45 94 -187 178 -470 276 -282 98 -432 165 -570 255 -207 134
-337 301 -381 490 -22 97 -15 294 14 385 97 298 411 509 849 569 112 16 414 5
513 -18z"/>
</g>
</svg>
