<?xml version="1.0" standalone="no"?>
<!DOCTYPE svg PUBLIC "-//W3C//DTD SVG 20010904//EN"
 "http://www.w3.org/TR/2001/REC-SVG-20010904/DTD/svg10.dtd">
<svg version="1.0" xmlns="http://www.w3.org/2000/svg"
 width="1920.000000pt" height="912.000000pt" viewBox="0 0 1920.000000 912.000000"
 preserveAspectRatio="xMidYMid meet">

<g transform="translate(0.000000,912.000000) scale(0.100000,-0.100000)"
fill="" stroke="none">
<path d="M0 4560 l0 -4560 5796 0 5796 0 -6 26 c-4 14 -19 44 -33 67 -25 39
-55 105 -120 262 -33 79 -48 95 -92 95 -20 0 -74 7 -121 16 -47 9 -128 22
-180 29 -597 86 -717 118 -784 208 -24 32 -25 84 -7 262 55 525 71 658 102
837 18 105 18 109 0 150 -10 24 -35 59 -56 78 -152 144 -240 358 -269 655 -11
116 -21 161 -55 259 -23 66 -41 135 -41 155 0 57 38 303 71 461 17 80 37 177
44 215 8 39 27 135 43 215 17 80 35 181 42 225 11 80 56 276 84 370 27 88 72
268 85 335 7 36 22 86 33 111 18 44 86 118 150 165 15 12 43 41 62 65 l34 45
7 220 c8 240 10 231 -49 243 -19 4 -37 18 -48 37 -17 28 -17 34 -3 66 8 20 21
38 30 41 8 4 15 18 15 32 0 14 5 34 12 44 9 15 9 33 0 78 -16 78 -15 74 -39
115 -16 28 -30 38 -57 43 -57 11 -191 0 -217 -19 -64 -45 -195 8 -239 97 -7
15 -22 27 -32 27 -17 0 -16 4 9 39 15 21 41 46 58 55 42 22 215 40 367 37 38
-1 54 -7 82 -31 34 -30 116 -176 131 -235 19 -69 33 -95 49 -89 8 3 17 17 21
32 3 15 31 66 61 113 71 114 73 146 9 221 -25 29 -60 73 -78 98 -52 71 -74 90
-105 90 -18 0 -54 16 -90 40 -33 22 -63 40 -68 40 -4 0 -18 10 -30 21 -29 27
-156 69 -209 69 -29 0 -52 -8 -81 -29 -21 -16 -58 -32 -80 -36 -32 -5 -49 -15
-74 -46 -17 -22 -63 -60 -100 -85 -59 -39 -72 -53 -90 -99 -20 -50 -20 -55 -5
-91 22 -53 42 -176 65 -399 13 -126 26 -208 40 -243 11 -29 20 -72 20 -96 0
-89 18 -148 69 -221 90 -130 95 -144 95 -280 0 -66 -4 -154 -9 -195 -7 -69
-11 -79 -51 -124 -42 -46 -44 -50 -44 -114 0 -65 1 -66 45 -109 42 -39 45 -46
45 -92 0 -43 -36 -220 -70 -341 -5 -19 -23 -93 -40 -165 -40 -172 -60 -236
-82 -261 -10 -11 -18 -28 -18 -36 0 -9 -6 -23 -13 -30 -12 -12 -37 -91 -37
-117 0 -6 7 -11 15 -11 17 0 20 -16 6 -24 -5 -4 -12 -24 -16 -46 -8 -47 -25
-54 -25 -10 0 28 -2 30 -40 30 -22 0 -40 5 -40 10 0 6 -11 10 -25 10 l-25 0 0
2340 0 2340 53 1 c28 1 61 3 72 4 11 1 169 5 350 9 182 4 334 11 339 16 14 14
-56 38 -129 45 -38 3 -144 12 -235 21 -91 8 -228 21 -305 27 l-140 12 -3 357
-2 358 4802 3 c2642 1 482 3 -4799 5 l-9603 2 0 -4560z m2094 4016 c60 -25 66
-44 66 -198 0 -81 -5 -147 -11 -162 -22 -47 -66 -58 -215 -54 l-136 3 -29 33
-29 32 0 143 c0 158 6 178 64 203 43 18 245 19 290 0z m406 -121 c11 -10 20
-24 20 -30 0 -23 -30 -25 -50 -5 -64 64 -157 -41 -100 -113 24 -31 79 -38 100
-12 16 19 50 20 50 1 0 -8 -12 -24 -27 -36 -39 -30 -114 -24 -150 13 -52 52
-35 170 30 197 32 14 105 5 127 -15z m699 1 c27 -25 28 -79 1 -106 -13 -13
-33 -20 -59 -20 -40 0 -40 0 -43 -42 -2 -36 -7 -44 -25 -46 -23 -3 -23 -2 -23
118 l0 122 64 -4 c45 -3 71 -10 85 -22z m281 -96 c0 -113 -1 -120 -20 -120
-19 0 -20 7 -20 120 0 113 1 120 20 120 19 0 20 -7 20 -120z m-806 39 c23 -18
26 -27 26 -88 l0 -68 -62 -1 c-71 -1 -88 9 -88 49 0 32 16 44 72 54 26 5 35
11 31 21 -6 16 -44 19 -59 4 -6 -6 -18 -8 -28 -4 -13 5 -14 9 -4 21 29 36 76
41 112 12z m156 3 c0 -11 -11 -24 -25 -30 -23 -10 -25 -17 -25 -72 0 -53 -2
-60 -20 -60 -18 0 -20 7 -20 85 l0 84 35 -1 c19 -1 38 2 42 5 10 11 13 8 13
-11z m163 -10 c10 -10 19 -31 20 -48 2 -29 2 -29 -62 -34 -56 -4 -62 -7 -48
-19 12 -9 30 -12 56 -7 47 7 60 -6 29 -28 -58 -41 -138 -1 -138 69 0 53 48
100 93 91 18 -4 40 -15 50 -24z m645 1 c15 -21 -2 -43 -20 -25 -15 15 -58 16
-58 2 0 -6 12 -16 28 -22 60 -26 78 -61 46 -92 -22 -23 -80 -20 -104 4 -20 20
-19 40 1 40 6 0 17 -7 26 -15 8 -9 22 -15 31 -13 30 6 22 24 -20 43 -33 15
-44 26 -46 47 -6 52 82 76 116 31z m184 -1 c9 -9 18 -30 20 -47 l3 -30 -64 -5
c-56 -4 -62 -7 -48 -19 12 -9 30 -12 56 -7 47 7 60 -6 29 -28 -60 -42 -138 -1
-138 73 0 76 90 116 142 63z m-532 -34 c0 -64 10 -81 41 -76 22 3 24 8 27 66
3 54 6 62 22 62 18 0 20 -7 20 -84 l0 -84 -60 -1 c-76 -1 -90 16 -90 106 0 56
2 63 20 63 17 0 20 -7 20 -52z m608 -931 c12 -11 22 -28 22 -36 0 -10 -5 -6
-13 9 -7 13 -23 30 -35 36 -30 15 -41 27 -17 18 11 -4 30 -16 43 -27z m-33
-22 c14 -13 25 -30 25 -37 -1 -7 -7 -2 -15 12 -7 14 -26 30 -42 37 -19 8 -22
12 -10 13 10 0 29 -11 42 -25z m-2065 -60 l0 -75 65 0 64 0 3 73 3 72 33 3 32
3 0 -170 0 -171 -35 0 -35 0 0 65 0 65 -65 0 -65 0 0 -65 0 -65 -35 0 -35 0 0
170 0 170 35 0 35 0 0 -75z m320 40 c0 -33 -2 -35 -35 -35 -32 0 -35 3 -35 28
0 36 6 42 42 42 25 0 28 -3 28 -35z m380 -22 c0 -44 3 -54 12 -45 21 21 84 14
115 -12 27 -23 28 -29 31 -125 l4 -101 -36 0 -36 0 0 83 c0 87 -8 107 -45 107
-37 0 -45 -20 -45 -107 l0 -83 -35 0 -35 0 0 170 0 170 35 0 35 0 0 -57z
m1369 -15 c11 -24 26 -52 35 -63 15 -20 15 -20 16 3 0 50 34 79 58 50 5 -7 13
-65 16 -130 l7 -116 -28 -32 c-43 -48 -103 -52 -164 -11 -26 17 -67 54 -93 81
-40 43 -45 53 -36 70 6 11 15 20 20 20 6 0 6 9 0 25 -11 29 11 58 36 48 14 -5
15 -3 5 16 -7 12 -9 31 -6 41 7 22 40 27 51 8 5 -7 10 -4 15 10 14 38 47 28
68 -20z m-1529 7 c0 -20 5 -25 25 -25 21 0 25 -5 25 -30 0 -25 -4 -30 -25 -30
-24 0 -25 -2 -25 -65 0 -65 0 -66 30 -71 23 -5 30 -12 30 -30 0 -21 -5 -24
-39 -24 -66 0 -85 24 -89 114 -4 67 -7 76 -23 76 -28 0 -27 56 1 63 12 3 20
14 20 26 0 17 6 21 35 21 31 0 35 -3 35 -25z m-220 -150 l0 -125 -35 0 -35 0
0 118 c0 65 3 122 7 125 3 4 19 7 35 7 l28 0 0 -125z m760 108 c35 -20 51 -49
53 -94 l2 -34 -87 -3 c-49 -1 -88 -6 -88 -9 0 -4 7 -15 17 -25 20 -22 60 -23
84 -2 14 12 22 13 39 4 29 -16 22 -39 -20 -62 -65 -36 -149 -8 -177 60 -36 86
21 182 108 182 22 0 54 -8 69 -17z m160 7 c0 -7 6 -7 19 0 11 5 29 10 40 10
17 0 21 -6 21 -30 0 -24 -4 -30 -22 -30 -45 0 -53 -14 -57 -105 l-3 -85 -29 0
-29 0 0 125 0 125 30 0 c17 0 30 -5 30 -10z m288 -6 c29 -20 52 -66 52 -104
l0 -30 -90 0 c-87 0 -90 -1 -80 -20 15 -28 58 -37 90 -18 19 11 32 12 48 5 28
-13 28 -21 -3 -46 -56 -43 -133 -35 -180 20 -47 57 -30 160 34 194 35 19 101
19 129 -1z m304 -203 c26 -7 28 -9 10 -10 -27 -1 -72 40 -72 66 1 11 6 6 15
-14 9 -22 24 -35 47 -42z m28 26 c13 -5 13 -6 -1 -6 -9 -1 -24 9 -35 22 -19
22 -19 22 1 6 11 -9 27 -19 35 -22z m-1839 -417 c10 -6 19 -15 19 -21 0 -5
-11 -2 -25 7 -50 33 -103 -23 -77 -81 15 -32 47 -40 77 -21 32 21 32 36 0 36
-14 0 -25 5 -25 10 0 6 14 10 30 10 24 0 30 -4 30 -22 0 -54 -78 -79 -115 -38
-27 30 -25 88 4 111 26 21 53 24 82 9z m949 -63 l0 -73 -36 -2 c-44 -3 -64 12
-64 49 0 39 26 62 62 55 25 -5 28 -3 28 19 0 14 2 25 5 25 3 0 5 -33 5 -73z
m370 49 c0 -19 4 -23 19 -19 28 7 51 -23 51 -68 0 -21 -4 -39 -10 -39 -5 0
-10 20 -10 45 0 41 -2 45 -25 45 -23 0 -25 -4 -25 -45 0 -25 -4 -45 -10 -45
-6 0 -10 32 -10 75 0 43 4 75 10 75 6 0 10 -11 10 -24z m660 14 c0 -5 -4 -10
-10 -10 -5 0 -10 5 -10 10 0 6 5 10 10 10 6 0 10 -4 10 -10z m-1758 -48 c-19
-6 -15 -69 6 -82 15 -10 15 -10 -3 -8 -15 2 -21 12 -23 43 -2 22 -8 43 -15 47
-8 5 -7 11 2 22 12 14 15 14 29 -1 12 -12 13 -18 4 -21z m210 0 c-19 -6 -15
-69 6 -82 15 -10 15 -10 -3 -8 -15 2 -21 12 -23 43 -2 22 -8 43 -14 46 -7 5
-6 12 3 21 12 13 15 13 29 0 11 -12 12 -16 2 -20z m260 0 c-19 -6 -15 -69 6
-82 15 -10 15 -10 -3 -8 -15 2 -21 12 -23 43 -2 22 -8 43 -15 47 -8 5 -7 11 2
22 12 14 15 14 29 -1 12 -12 13 -18 4 -21z m570 0 c-19 -6 -15 -69 6 -82 15
-10 15 -10 -3 -8 -15 2 -21 12 -23 43 -2 22 -8 43 -15 47 -8 5 -7 11 2 22 12
14 15 14 29 -1 12 -12 13 -18 4 -21z m896 21 c12 -12 13 -18 4 -21 -16 -5 -16
-79 1 -85 7 -4 6 -6 -4 -6 -19 -1 -29 19 -29 59 0 16 -5 30 -12 32 -9 3 -8 9
2 21 19 20 18 20 38 0z m500 0 c12 -12 13 -18 4 -21 -16 -5 -16 -79 1 -86 6
-3 3 -5 -8 -3 -16 2 -21 11 -23 42 -2 22 -8 43 -14 46 -7 5 -6 12 3 23 18 19
17 19 37 -1z m-2514 -25 c24 -34 20 -38 -30 -38 -47 0 -55 -13 -21 -34 12 -8
23 -7 38 2 18 11 20 11 17 0 -6 -17 -55 -23 -74 -7 -20 17 -18 76 4 88 27 16
50 13 66 -11z m216 7 c14 -17 0 -21 -17 -4 -12 12 -33 4 -33 -12 0 -6 14 -15
31 -21 23 -8 29 -16 27 -32 -4 -26 -49 -34 -68 -12 -14 18 0 22 17 5 14 -14
47 -4 38 12 -4 5 -18 14 -31 19 -23 9 -32 38 -17 53 11 12 40 8 53 -8z m174 9
c12 -4 16 -20 16 -54 l0 -47 -37 1 c-33 1 -38 4 -38 25 0 19 7 27 33 33 31 8
44 27 20 29 -18 2 -21 1 -43 -7 -18 -7 -18 -6 -6 9 14 18 29 21 55 11z m96 -4
c0 -4 -6 -10 -14 -13 -9 -4 -16 -24 -19 -49 -3 -40 -4 -39 -5 12 -2 49 0 56
18 57 11 1 20 -2 20 -7z m184 -12 c24 -33 20 -38 -29 -38 -47 0 -56 -9 -30
-30 12 -10 21 -10 40 -2 15 7 25 8 25 2 0 -15 -51 -24 -69 -13 -24 15 -27 74
-5 90 26 19 51 16 68 -9z m221 -18 c4 -17 10 -30 15 -30 5 0 11 13 15 30 10
45 22 45 38 -2 l14 -43 13 43 c7 23 17 42 23 42 5 0 7 -6 4 -14 -3 -8 -11 -32
-18 -55 -7 -23 -16 -41 -20 -41 -4 0 -14 19 -22 43 l-14 42 -12 -42 c-6 -24
-16 -43 -20 -43 -8 0 -41 82 -41 102 0 20 19 -4 25 -32z m152 -42 c-2 -18 -4
-6 -4 27 0 33 2 48 4 33 2 -15 2 -42 0 -60z m327 76 c12 -4 16 -20 16 -54 l0
-47 -37 1 c-33 1 -38 4 -38 25 0 20 7 27 33 33 28 7 32 12 22 23 -9 11 -17 12
-30 5 -27 -14 -34 -12 -20 5 13 16 29 19 54 9z m139 -11 c39 -35 8 -98 -45
-91 -24 4 -28 1 -28 -19 0 -13 -4 -23 -10 -23 -6 0 -10 31 -10 73 l0 73 38 1
c21 1 44 -5 55 -14z m115 11 c33 -7 47 -50 26 -81 -13 -21 -22 -24 -49 -20
-31 5 -34 3 -38 -21 -2 -15 -5 7 -6 48 -1 82 2 86 67 74z m146 -7 c21 -16 24
-60 6 -82 -15 -18 -61 -20 -78 -3 -17 17 -15 64 4 82 19 19 44 20 68 3z m66
-48 c0 -27 -4 -49 -10 -49 -5 0 -10 25 -10 56 0 34 4 53 10 49 6 -3 10 -28 10
-56z m106 49 c12 -13 17 -98 6 -98 -6 0 -12 19 -14 43 -2 35 -7 43 -25 45 -23
3 -26 -3 -36 -68 -3 -14 -5 0 -6 31 l-1 56 35 -2 c18 0 37 -4 41 -7z m252 -1
c7 -5 11 -27 10 -55 l-1 -47 -6 45 c-5 37 -10 46 -28 48 -21 3 -23 -1 -23 -42
0 -58 -18 -61 -22 -3 -2 35 -7 43 -25 45 -21 3 -23 -1 -23 -42 0 -25 -4 -46
-10 -46 -5 0 -10 24 -10 53 l0 52 63 0 c34 0 68 -4 75 -8z m126 -9 c24 -34 20
-38 -30 -38 -47 0 -55 -13 -21 -34 12 -8 23 -7 38 2 18 11 20 11 17 0 -6 -17
-55 -23 -74 -7 -20 17 -18 76 4 88 27 16 50 13 66 -11z m113 10 c8 -6 12 -30
12 -57 -1 -25 -3 -35 -6 -21 -10 65 -13 71 -36 68 -18 -2 -23 -10 -25 -45 -5
-62 -22 -53 -22 10 0 54 0 54 32 55 18 0 38 -4 45 -10z m183 -3 c14 -17 0 -21
-17 -4 -12 12 -33 4 -33 -12 0 -6 14 -15 31 -21 23 -8 29 -16 27 -32 -4 -26
-49 -34 -68 -12 -14 18 0 22 17 5 14 -14 47 -4 38 12 -4 5 -18 14 -31 19 -23
9 -32 38 -17 53 11 12 40 8 53 -8z m60 -85 c0 -5 -4 -10 -10 -10 -5 0 -10 5
-10 10 0 6 5 10 10 10 6 0 10 -4 10 -10z m5580 -719 c0 -29 -24 -49 -35 -31
-4 6 -17 10 -31 10 -27 0 -28 3 -14 31 8 13 21 19 45 19 32 0 35 -3 35 -29z
m-8471 -77 c-10 -13 -10 -17 2 -25 10 -6 10 -9 2 -9 -8 0 -13 -15 -13 -40 0
-53 -18 -51 -22 3 -4 49 9 87 30 87 12 0 12 -3 1 -16z m151 -49 c0 -37 -4 -65
-10 -65 -6 0 -10 28 -10 65 0 37 4 65 10 65 6 0 10 -28 10 -65z m37 -32 c-2
-21 -4 -6 -4 32 0 39 2 55 4 38 2 -18 2 -50 0 -70z m127 51 c18 -17 22 -84 6
-84 -5 0 -10 16 -10 35 0 23 -6 38 -15 42 -21 7 -27 0 -35 -44 l-8 -38 -1 47
c-1 46 2 50 41 57 4 0 14 -6 22 -15z m90 10 c11 -4 16 -19 16 -48 0 -40 -2
-42 -32 -44 -54 -4 -61 41 -7 53 16 4 26 11 23 17 -3 5 -18 7 -33 4 -25 -6
-25 -6 -7 9 23 17 20 17 40 9z m131 -4 c17 28 55 -10 55 -56 0 -46 -18 -43
-22 4 -2 25 -8 37 -18 37 -10 0 -16 -12 -18 -37 -2 -21 -7 -38 -12 -38 -5 0
-10 17 -12 38 -2 25 -8 37 -18 37 -10 0 -16 -12 -18 -37 -4 -53 -22 -48 -22 6
0 38 3 45 23 48 12 2 30 0 39 -4 10 -5 19 -4 23 2z m136 0 c10 -6 19 -20 19
-30 0 -16 -7 -20 -36 -20 -31 0 -35 -2 -24 -15 8 -10 21 -13 38 -8 17 4 23 2
18 -6 -12 -18 -54 -13 -70 10 -16 23 -12 47 12 67 19 15 19 15 43 2z m-619
-37 c2 -26 8 -38 18 -38 10 0 16 12 18 38 4 52 22 46 22 -8 0 -43 -1 -45 -28
-45 -37 0 -52 17 -52 57 0 45 18 42 22 -4z m231 -444 c41 -22 49 -59 20 -91
-32 -36 -103 -11 -103 36 0 26 9 39 35 54 25 14 22 14 48 1z m850 -56 c-7 -2
-19 -2 -25 0 -7 3 -2 5 12 5 14 0 19 -2 13 -5z m-828 -93 c26 -10 58 -67 48
-84 -3 -5 -12 6 -19 23 -26 63 -114 64 -146 3 -20 -42 -31 -28 -13 16 20 47
73 64 130 42z m492 -26 c-3 -3 -12 -4 -19 -1 -8 3 -5 6 6 6 11 1 17 -2 13 -5z
m336 -1 c-7 -2 -19 -2 -25 0 -7 3 -2 5 12 5 14 0 19 -2 13 -5z m254 1 c-3 -3
-12 -4 -19 -1 -8 3 -5 6 6 6 11 1 17 -2 13 -5z m-1337 -784 c0 -5 -16 -10 -35
-10 -28 0 -35 -4 -35 -20 0 -16 7 -20 38 -22 l37 -1 -37 -4 c-30 -3 -38 -9
-38 -24 0 -15 7 -19 35 -19 19 0 35 -4 35 -10 0 -5 -18 -10 -40 -10 l-40 0 0
65 0 65 40 0 c22 0 40 -4 40 -10z m300 0 c0 -5 -4 -10 -10 -10 -5 0 -10 5 -10
10 0 6 5 10 10 10 6 0 10 -4 10 -10z m40 -55 c0 -37 -4 -65 -10 -65 -6 0 -10
28 -10 65 0 37 4 65 10 65 6 0 10 -28 10 -65z m-194 22 c12 -12 17 -87 5 -87
-6 0 -11 16 -11 35 0 23 -6 38 -15 42 -21 7 -27 0 -35 -44 l-8 -38 -1 38 c-1
24 -7 40 -16 44 -21 7 -27 0 -35 -44 l-8 -38 -1 47 c-1 37 3 47 17 50 24 5
101 2 108 -5z m88 7 c11 -4 16 -19 16 -48 0 -40 -2 -42 -32 -44 -54 -4 -61 41
-7 53 16 4 26 11 23 17 -3 5 -18 7 -33 4 -25 -6 -25 -6 -7 9 23 17 20 17 40 9z
m66 -49 c0 -25 -4 -45 -10 -45 -5 0 -10 20 -10 45 0 25 5 45 10 45 6 0 10 -20
10 -45z m28 -538 c2 -50 -1 -84 -9 -93 -15 -18 -199 -20 -217 -2 -13 13 -17
159 -5 172 4 3 57 5 117 4 l111 -3 3 -78z m389 -73 c-3 -3 -12 -4 -19 -1 -8 3
-5 6 6 6 11 1 17 -2 13 -5z m550 0 c-3 -3 -12 -4 -19 -1 -8 3 -5 6 6 6 11 1
17 -2 13 -5z m530 0 c-3 -3 -12 -4 -19 -1 -8 3 -5 6 6 6 11 1 17 -2 13 -5z
m350 0 c-3 -3 -12 -4 -19 -1 -8 3 -5 6 6 6 11 1 17 -2 13 -5z m5726 -254 c7 0
18 -4 26 -9 12 -8 12 -12 3 -24 -10 -12 -9 -18 5 -33 16 -16 18 -39 17 -231
-2 -275 -35 -683 -56 -683 -4 0 -8 -8 -8 -17 0 -15 -2 -16 -10 -3 -5 8 -10 12
-10 8 0 -5 -9 1 -20 12 -19 19 -20 33 -20 489 0 421 2 471 16 486 9 9 23 14
31 11 8 -3 20 -6 26 -6z m-7889 -526 c9 -4 16 -18 16 -34 0 -28 -15 -40 -50
-40 -13 0 -20 -9 -23 -27 -2 -16 -5 2 -6 40 -1 65 0 67 23 67 13 0 31 -3 40
-6z m72 -30 c31 12 44 -5 43 -53 l-2 -46 -6 40 c-5 31 -10 40 -26 40 -16 0
-21 -9 -26 -40 -5 -31 -6 -24 -6 30 0 39 2 60 4 47 3 -15 10 -22 19 -18z m804
15 c0 -15 5 -19 19 -14 11 3 28 -2 42 -14 20 -16 22 -23 14 -47 -9 -25 -16
-29 -53 -30 l-42 -2 0 64 c0 36 4 64 10 64 6 0 10 -9 10 -21z m-662 -25 c24
-17 29 -53 10 -72 -19 -19 -55 -14 -72 9 -16 23 -12 47 12 67 20 15 23 15 50
-4z m110 4 c7 -7 11 -30 11 -52 l-1 -41 -8 38 c-8 44 -14 51 -35 44 -9 -4 -15
-19 -15 -42 0 -19 -4 -35 -10 -35 -5 0 -10 20 -10 44 0 38 3 45 23 49 12 2 24
5 28 6 3 0 10 -4 17 -11z m104 -5 c29 -26 22 -43 -17 -43 -36 0 -47 -13 -19
-24 9 -4 23 -1 32 6 13 11 14 10 10 -2 -6 -19 -45 -25 -64 -10 -21 18 -17 57
8 74 28 20 27 20 50 -1z m148 -43 c0 -22 -4 -40 -10 -40 -5 0 -10 18 -10 41 0
33 -3 40 -17 37 -13 -2 -19 -14 -21 -41 -4 -52 -22 -46 -22 7 0 38 3 45 23 48
40 7 57 -9 57 -52z m210 50 c26 16 50 -8 50 -50 0 -22 -4 -40 -10 -40 -5 0
-10 18 -10 41 0 33 -3 40 -17 37 -13 -2 -19 -14 -21 -41 -4 -50 -22 -47 -22 4
0 33 -3 40 -17 37 -13 -2 -19 -14 -21 -41 -4 -52 -22 -46 -22 7 0 38 3 45 23
48 12 2 29 1 38 -3 8 -4 21 -4 29 1z m258 -6 c34 -24 28 -44 -13 -44 -19 0
-35 -5 -35 -10 0 -18 29 -23 47 -9 14 12 16 12 11 -1 -6 -19 -45 -25 -64 -10
-19 16 -18 55 2 74 19 20 24 20 52 0z m-426 -31 c2 -26 8 -38 18 -38 10 0 16
12 18 38 4 52 22 46 22 -8 0 -43 -1 -45 -28 -45 -37 0 -52 17 -52 57 0 45 18
42 22 -4z m506 30 c-10 -2 -20 -14 -23 -26 -2 -12 -6 -31 -8 -42 -3 -11 -5 1
-6 28 -1 45 0 47 27 46 16 -1 20 -3 10 -6z m-788 -523 c0 -6 -28 -10 -65 -10
-37 0 -65 4 -65 10 0 6 28 10 65 10 37 0 65 -4 65 -10z m390 -65 c0 -37 -4
-65 -10 -65 -5 0 -10 23 -10 51 0 38 -5 55 -17 65 -16 12 -15 13 10 14 27 0
27 -1 27 -65z m-390 35 c0 -6 -28 -10 -65 -10 -37 0 -65 4 -65 10 0 6 28 10
65 10 37 0 65 -4 65 -10z m290 -30 c0 -13 7 -20 20 -20 11 0 20 -4 20 -10 0
-5 -9 -10 -20 -10 -11 0 -20 -7 -20 -15 0 -8 -4 -15 -10 -15 -5 0 -10 7 -10
15 0 8 -7 15 -15 15 -8 0 -15 5 -15 10 0 6 7 10 15 10 8 0 15 9 15 20 0 11 5
20 10 20 6 0 10 -9 10 -20z m-323 3 c-20 -2 -52 -2 -70 0 -17 2 0 4 38 4 39 0
53 -2 32 -4z m-29 -30 c-38 -2 -98 -2 -135 0 -38 2 -7 3 67 3 74 0 105 -1 68
-3z m62 -23 c0 -6 -50 -10 -130 -10 -80 0 -130 4 -130 10 0 6 50 10 130 10 80
0 130 -4 130 -10z m0 -30 c0 -6 -50 -10 -130 -10 -80 0 -130 4 -130 10 0 6 50
10 130 10 80 0 130 -4 130 -10z m5733 -681 c40 -18 47 -49 47 -214 0 -165 -7
-196 -47 -214 -34 -16 -6072 -16 -6106 0 -40 18 -47 49 -47 214 0 162 7 196
44 213 31 15 6076 16 6109 1z m-6060 -1096 c-7 -2 -19 -2 -25 0 -7 3 -2 5 12
5 14 0 19 -2 13 -5z m274 1 c-3 -3 -12 -4 -19 -1 -8 3 -5 6 6 6 11 1 17 -2 13
-5z m120 0 c-3 -3 -12 -4 -19 -1 -8 3 -5 6 6 6 11 1 17 -2 13 -5z m260 0 c-3
-3 -12 -4 -19 -1 -8 3 -5 6 6 6 11 1 17 -2 13 -5z m376 -1 c-7 -2 -19 -2 -25
0 -7 3 -2 5 12 5 14 0 19 -2 13 -5z m4617 -3 c0 -5 -4 -10 -10 -10 -5 0 -10 5
-10 10 0 6 5 10 10 10 6 0 10 -4 10 -10z m136 -48 c1 -7 0 -8 -3 -2 -8 16 -51
11 -62 -7 -6 -10 -11 -13 -11 -7 -1 31 70 46 76 16z m158 9 c2 -3 -22 -6 -55
-6 -32 0 -59 3 -59 7 0 8 109 8 114 -1z m146 2 c0 -5 -13 -8 -30 -8 -16 0 -30
3 -30 8 0 4 14 7 30 7 17 0 30 -3 30 -7z m-449 -43 c11 0 19 7 19 18 0 14 2
15 10 2 16 -25 12 -30 -25 -30 -22 0 -38 -6 -44 -17 -14 -24 -14 -13 1 28 9
24 13 29 16 17 2 -10 12 -18 23 -18z m-4608 13 c-7 -2 -19 -2 -25 0 -7 3 -2 5
12 5 14 0 19 -2 13 -5z m-520 -20 c-13 -2 -33 -2 -45 0 -13 2 -3 4 22 4 25 0
35 -2 23 -4z m5235 -23 c10 0 23 5 30 12 9 9 12 9 12 0 0 -17 -48 -26 -65 -12
-8 7 -15 18 -15 24 0 6 5 3 11 -6 5 -10 18 -18 27 -18z m-5751 -6 c-3 -3 -12
-4 -19 -1 -8 3 -5 6 6 6 11 1 17 -2 13 -5z m181 -1 c-10 -2 -28 -2 -40 0 -13
2 -5 4 17 4 22 1 32 -1 23 -4z m99 1 c-3 -3 -12 -4 -19 -1 -8 3 -5 6 6 6 11 1
17 -2 13 -5z m131 -1 c-10 -2 -28 -2 -40 0 -13 2 -5 4 17 4 22 1 32 -1 23 -4z
m249 1 c-3 -3 -12 -4 -19 -1 -8 3 -5 6 6 6 11 1 17 -2 13 -5z m280 0 c-3 -3
-12 -4 -19 -1 -8 3 -5 6 6 6 11 1 17 -2 13 -5z m250 0 c-3 -3 -12 -4 -19 -1
-8 3 -5 6 6 6 11 1 17 -2 13 -5z m100 0 c-3 -3 -12 -4 -19 -1 -8 3 -5 6 6 6
11 1 17 -2 13 -5z m100 0 c-3 -3 -12 -4 -19 -1 -8 3 -5 6 6 6 11 1 17 -2 13
-5z"/>
<path d="M1800 8403 c0 -38 21 -71 49 -76 44 -9 43 7 -4 53 -39 38 -45 41 -45
23z"/>
<path d="M1920 8270 l-25 -7 27 -8 c35 -9 55 -3 37 11 -8 6 -25 8 -39 4z"/>
<path d="M3100 8405 c0 -33 2 -35 34 -35 26 0 36 5 41 20 9 28 -11 50 -46 50
-26 0 -29 -3 -29 -35z"/>
<path d="M2612 8309 c-28 -11 -24 -33 6 -37 21 -3 48 29 35 42 -8 8 -12 7 -41
-5z"/>
<path d="M2900 8366 c-11 -14 -7 -16 30 -16 29 0 40 4 38 13 -7 18 -53 20 -68
3z"/>
<path d="M3730 8365 c-11 -13 -7 -15 28 -15 33 0 40 3 36 15 -4 8 -16 15 -29
15 -12 0 -28 -7 -35 -15z"/>
<path d="M2777 7262 c-26 -28 -21 -32 38 -32 58 0 66 7 37 33 -24 22 -55 21
-75 -1z"/>
<path d="M3232 7273 c-7 -2 -17 -13 -22 -24 -10 -18 -7 -19 45 -19 42 0 55 4
55 15 0 25 -45 41 -78 28z"/>
<path d="M2690 6655 c-14 -17 -5 -51 15 -59 33 -12 61 19 50 55 -8 23 -47 25
-65 4z"/>
<path d="M1904 6663 c-17 -17 -16 -18 15 -21 40 -4 48 2 31 23 -16 19 -25 19
-46 -2z"/>
<path d="M2304 6619 c-3 -6 -1 -16 5 -22 13 -13 42 0 49 21 5 15 -44 16 -54 1z"/>
<path d="M2577 6669 c-28 -16 -20 -29 18 -29 38 0 46 13 17 29 -11 6 -24 6
-35 0z"/>
<path d="M3284 6619 c-3 -6 -1 -16 5 -22 13 -13 42 0 49 21 5 15 -44 16 -54 1z"/>
<path d="M3407 6663 c-12 -12 -7 -50 8 -63 32 -26 74 16 53 54 -9 16 -49 22
-61 9z"/>
<path d="M3540 6649 c-10 -18 -9 -25 9 -43 27 -27 56 -12 56 30 0 24 -5 30
-27 32 -19 2 -30 -3 -38 -19z"/>
<path d="M3670 6655 c-14 -17 -5 -51 16 -59 20 -8 54 11 54 29 0 43 -43 62
-70 30z"/>
<path d="M4224 6663 c-17 -17 -16 -18 15 -21 40 -4 48 2 31 23 -16 19 -25 19
-46 -2z"/>
<path d="M2115 5711 c-10 -18 17 -23 33 -7 15 15 15 16 -5 16 -12 0 -24 -4
-28 -9z"/>
<path d="M2375 5750 c-4 -6 7 -10 25 -10 18 0 29 4 25 10 -3 6 -15 10 -25 10
-10 0 -22 -4 -25 -10z"/>
<path d="M1980 5266 c-6 -8 -10 -25 -8 -38 2 -18 10 -24 35 -26 28 -3 33 1 39
23 11 45 -37 75 -66 41z"/>
<path d="M1995 4241 c-10 -18 17 -23 33 -7 15 15 15 16 -5 16 -12 0 -24 -4
-28 -9z"/>
<path d="M1968 3738 l42 -43 42 43 43 42 -85 0 -85 0 43 -42z"/>
<path d="M1910 3707 c0 -31 1 -57 3 -57 2 0 15 13 30 28 l27 28 -30 29 -30 29
0 -57z"/>
<path d="M2077 3732 l-27 -28 30 -29 30 -29 0 57 c0 31 -1 57 -3 57 -2 0 -15
-13 -30 -28z"/>
<path d="M1953 3658 l-27 -28 84 0 85 0 -27 27 c-37 36 -81 36 -115 1z"/>
<path d="M1730 2830 c0 -17 5 -21 28 -18 16 2 27 9 27 18 0 9 -11 16 -27 18
-23 3 -28 -1 -28 -18z"/>
<path d="M2667 2814 c-12 -12 -8 -41 8 -54 20 -17 47 5 43 34 -3 21 -37 34
-51 20z"/>
<path d="M1952 2808 c-16 -16 -15 -33 2 -47 22 -18 48 -2 44 28 -3 28 -27 38
-46 19z"/>
<path d="M2165 2810 c-4 -6 5 -10 20 -10 15 0 24 4 20 10 -3 6 -12 10 -20 10
-8 0 -17 -4 -20 -10z"/>
<path d="M2780 2810 c0 -5 12 -10 26 -10 14 0 23 4 19 10 -3 6 -15 10 -26 10
-10 0 -19 -4 -19 -10z"/>
<path d="M17824 8096 c-18 -8 -36 -20 -40 -28 -5 -7 -21 -19 -36 -27 -16 -8
-28 -18 -28 -23 0 -4 -15 -25 -33 -45 -19 -21 -39 -52 -44 -69 -15 -44 -5
-120 23 -182 13 -29 24 -57 24 -62 0 -24 53 -119 70 -123 15 -4 21 6 34 59 9
35 27 80 41 100 14 21 28 49 31 63 3 14 15 53 27 85 15 43 21 84 21 152 1 51
-1 94 -4 97 -13 14 -58 15 -86 3z"/>
<path d="M13839 7661 c-63 -13 -146 -60 -236 -136 -98 -81 -308 -293 -336
-338 -10 -16 -31 -40 -48 -54 -16 -14 -44 -46 -60 -72 l-31 -46 40 45 c58 63
52 32 -12 -64 -29 -44 -59 -97 -66 -116 -8 -19 -22 -46 -32 -59 -10 -13 -18
-31 -18 -41 0 -10 -9 -29 -20 -43 -11 -14 -20 -29 -20 -34 0 -5 -18 -52 -40
-104 -23 -52 -42 -101 -43 -111 -2 -9 -8 -22 -14 -30 -17 -21 -83 -169 -83
-187 0 -15 -66 -131 -81 -141 -23 -16 -53 -111 -57 -182 -4 -77 19 -232 54
-354 18 -65 18 -157 -1 -193 -8 -16 -12 -31 -9 -34 12 -12 -18 -78 -41 -90
-12 -6 -54 -41 -91 -76 l-69 -65 -3 -85 c-4 -99 15 -212 54 -321 24 -69 25
-79 14 -120 -7 -25 -17 -67 -22 -95 -5 -28 -28 -79 -50 -114 -38 -61 -40 -67
-34 -120 5 -37 18 -75 41 -114 l35 -58 -33 -32 c-18 -18 -46 -49 -61 -70 -29
-40 -47 -50 -135 -73 -75 -19 -92 -38 -27 -28 57 8 56 13 10 -116 -21 -59 -26
-91 -24 -150 1 -41 5 -77 10 -80 4 -3 14 -34 22 -70 14 -64 30 -84 36 -44 2
13 15 25 36 32 44 16 48 15 41 -8 -3 -10 -1 -28 4 -39 14 -25 5 -48 -20 -54
-13 -3 -17 -11 -13 -21 3 -9 -1 -33 -9 -54 -8 -20 -15 -40 -16 -45 0 -4 -4
-19 -7 -33 -7 -29 11 -133 32 -181 8 -17 14 -40 14 -51 0 -34 61 -211 85 -246
l23 -34 -40 -38 c-77 -75 -114 -189 -88 -268 16 -49 63 -102 114 -128 31 -16
70 -23 160 -29 156 -10 154 -12 253 191 48 96 32 205 -41 283 -33 36 -33 41 2
23 42 -22 117 -111 135 -160 4 -10 10 -16 13 -13 3 3 -20 54 -50 113 l-57 108
53 55 c63 66 74 85 99 165 11 34 25 72 32 86 11 23 53 70 62 70 2 0 16 11 30
24 37 34 50 132 36 268 l-10 100 76 150 c78 156 92 205 93 335 0 56 23 139 45
162 18 18 21 6 40 -149 8 -69 26 -170 39 -225 14 -55 36 -161 51 -235 14 -74
32 -157 40 -185 7 -27 21 -95 30 -150 9 -55 20 -104 25 -109 5 -5 46 3 102 22
51 16 105 33 121 36 15 4 27 10 27 14 0 4 4 13 9 21 8 12 13 12 40 0 17 -8 34
-22 37 -31 3 -10 12 -18 20 -18 8 0 14 -10 14 -22 0 -18 2 -20 9 -9 7 11 10 9
13 -10 2 -18 10 -25 32 -27 16 -2 33 2 38 10 15 22 -2 121 -23 136 -11 7 -31
35 -44 62 -14 27 -39 65 -56 85 -17 19 -27 35 -23 35 5 0 -7 15 -27 33 -20 18
-52 58 -72 89 -19 31 -40 59 -45 62 -6 3 -22 38 -37 76 -15 39 -31 70 -36 70
-14 0 -27 -32 -40 -100 -27 -145 -49 -230 -69 -262 -22 -36 -25 -30 -10 21 20
70 11 442 -16 696 -9 79 4 66 51 -52 60 -153 165 -324 165 -269 0 24 45 37
101 30 47 -6 48 -6 54 22 14 59 39 115 56 124 59 32 106 -22 145 -168 30 -114
10 -214 -62 -297 l-24 -28 31 -38 c17 -22 32 -39 34 -39 2 0 25 37 51 83 75
132 151 243 176 258 13 8 48 22 78 32 30 9 69 29 87 44 106 93 294 437 339
623 14 58 28 109 31 113 8 13 33 -13 50 -52 36 -82 25 -457 -20 -706 -14 -77
-33 -192 -42 -255 -24 -171 -24 -170 -43 -163 -43 15 -231 230 -284 324 -22
40 -48 52 -48 22 0 -9 -10 -27 -21 -39 -20 -21 -20 -24 -5 -40 11 -11 15 -26
12 -43 -3 -14 -2 -33 3 -40 16 -25 -6 -51 -42 -52 -18 0 -26 -3 -19 -6 6 -2
12 -12 12 -20 0 -11 -8 -14 -28 -11 -26 4 -29 0 -46 -53 -16 -53 -16 -59 -2
-88 20 -37 42 -39 123 -11 94 33 170 22 220 -32 26 -28 40 -158 24 -228 -6
-28 -7 -46 -1 -48 6 -2 10 -15 10 -28 0 -14 11 -36 25 -50 37 -36 32 -63 -21
-114 -25 -25 -52 -59 -60 -77 -20 -41 -15 -151 6 -138 4 3 13 -2 20 -10 9 -11
17 -12 31 -4 14 7 19 6 20 -3 0 -7 4 -3 10 10 10 27 27 124 39 237 5 44 14
112 20 150 20 125 40 276 60 450 20 166 47 343 77 495 8 41 19 167 24 280 11
239 19 312 36 317 7 3 48 -29 90 -69 43 -41 101 -87 128 -103 116 -67 157
-117 235 -285 51 -111 160 -414 160 -445 0 -12 -5 -26 -12 -33 -8 -8 -8 -15 1
-26 9 -11 39 -102 41 -123 0 0 -19 -12 -42 -26 -59 -35 -113 -93 -137 -148
-25 -57 -38 -194 -22 -240 6 -18 14 -63 18 -101 3 -38 9 -70 12 -73 4 -2 26
-1 49 2 37 5 40 7 25 18 -13 10 -18 36 -24 133 -3 66 -10 125 -13 131 -4 6 1
41 10 78 33 135 68 173 177 194 52 11 58 14 54 33 -3 12 -17 71 -31 131 -14
61 -26 126 -26 145 0 70 -62 244 -145 410 -25 49 -45 92 -45 95 0 12 42 3 170
-36 119 -36 327 -89 351 -89 5 0 -8 33 -29 73 -39 72 -72 201 -72 279 0 20 9
57 20 83 11 26 20 67 20 91 0 46 -29 117 -54 131 -23 13 -52 86 -50 125 1 30
12 49 57 97 30 33 70 81 88 106 18 25 36 45 41 45 5 0 26 37 47 83 59 126 135
478 116 536 -6 20 -8 20 -31 5 -35 -23 -97 -11 -161 31 -33 22 -65 35 -85 35
-142 0 -199 34 -197 117 2 74 11 94 52 116 46 23 77 14 128 -39 28 -28 40 -34
77 -34 35 0 49 6 73 29 50 50 37 116 -37 197 -59 64 -67 81 -62 140 3 38 4 39
51 48 37 7 54 6 70 -4 12 -8 33 -19 48 -27 14 -7 43 -39 64 -72 22 -33 43 -57
48 -52 9 9 27 156 27 221 0 82 -17 121 -83 185 -89 87 -175 120 -313 120 -98
0 -103 -1 -186 -42 -63 -31 -100 -58 -136 -98 -66 -72 -82 -122 -80 -248 1
-85 -2 -100 -18 -111 -10 -8 -22 -12 -27 -9 -22 13 -71 137 -93 236 -15 62
-30 128 -34 147 -14 60 -68 208 -94 257 -13 27 -39 77 -57 111 -31 61 -116
166 -182 225 -106 96 -246 201 -342 258 -21 13 -47 31 -57 41 -27 27 -105 63
-188 88 -60 18 -92 21 -165 18 -79 -4 -97 -8 -148 -37 l-58 -33 -71 36 c-73
37 -110 42 -189 27z m511 -619 c36 -11 112 -40 170 -64 118 -49 184 -102 276
-223 29 -38 78 -99 107 -133 71 -85 107 -200 93 -296 l-7 -45 -47 13 c-51 14
-148 32 -227 42 -98 12 -106 21 -47 58 42 26 105 37 140 24 35 -12 23 12 -17
36 -52 30 -150 32 -282 6 -63 -12 -121 -29 -130 -36 -8 -8 -19 -14 -23 -14
-19 0 -36 -32 -36 -69 l0 -40 46 -3 45 -3 -62 -47 c-57 -44 -66 -48 -119 -48
-60 0 -69 8 -70 62 0 19 -111 138 -129 138 -7 0 -29 9 -51 20 -22 11 -51 20
-65 20 -15 0 -35 5 -46 10 -11 6 -52 13 -92 15 -39 2 -74 5 -77 6 -3 1 -9 1
-13 0 -4 -1 -14 5 -21 12 -12 11 -7 19 27 48 73 61 107 99 107 119 0 11 5 20
11 20 16 0 8 81 -12 115 -11 19 -16 43 -13 65 2 19 4 44 5 55 0 52 114 125
234 151 81 18 242 11 325 -14z m477 -747 c130 -26 146 -293 26 -426 -54 -59
-102 -73 -236 -66 -131 6 -171 20 -215 73 -41 49 -83 155 -89 224 -4 46 -2 59
17 83 12 15 36 35 53 44 32 16 32 16 14 -4 -16 -18 -16 -25 -5 -62 7 -22 19
-41 26 -41 8 0 11 -7 7 -19 -7 -22 5 -32 64 -55 34 -13 59 -16 106 -11 74 8
96 18 77 37 -6 6 -12 15 -12 19 0 10 44 54 55 55 31 2 96 18 100 24 8 13 -41
91 -69 110 l-29 18 24 5 c13 2 31 3 39 1 8 -1 29 -5 47 -9z m123 -46 c0 -5 5
-9 11 -9 6 0 9 7 5 15 -4 12 3 15 29 15 24 0 35 -5 35 -14 0 -21 -21 -31 -31
-15 -6 10 -9 11 -9 2 0 -20 -45 -15 -64 6 -17 19 -17 19 3 14 12 -3 21 -9 21
-14z m-240 -59 c0 -10 -7 -20 -15 -24 -12 -4 -15 3 -15 31 0 30 2 34 15 23 8
-7 15 -20 15 -30z m80 9 c0 -6 -4 -7 -10 -4 -5 3 -10 11 -10 16 0 6 5 7 10 4
6 -3 10 -11 10 -16z m-1410 -35 c0 -13 -4 -24 -9 -24 -13 0 -24 37 -16 50 10
16 25 1 25 -26z m1649 -33 c6 -39 11 -82 11 -98 0 -15 9 -41 20 -58 12 -18 17
-38 14 -52 -9 -33 3 -58 19 -44 11 8 16 -5 26 -64 7 -41 10 -84 6 -94 -8 -26
-59 -43 -91 -31 -14 6 -29 8 -34 5 -4 -2 -11 -40 -15 -82 -19 -208 -59 -330
-153 -469 l-62 -92 0 -75 c0 -42 5 -166 11 -276 16 -309 9 -329 -223 -637 -31
-41 -59 -80 -61 -87 -10 -27 -27 11 -41 92 -15 91 -39 134 -77 139 -35 6 -47
19 -83 91 -33 66 -33 67 -25 161 5 52 6 107 3 122 -3 14 0 29 6 33 6 3 10 21
8 38 -1 18 4 42 10 54 7 12 12 31 12 43 0 12 8 35 17 50 15 27 15 30 -1 54 -9
14 -22 26 -29 27 -6 0 -34 2 -62 5 -82 7 -140 4 -143 -6 -2 -6 -24 -10 -49
-10 -64 0 -108 35 -111 90 -3 38 -1 40 26 40 16 0 35 -6 42 -14 14 -18 90 -17
90 1 0 16 55 55 105 75 22 9 55 22 73 30 17 7 32 18 32 25 0 7 14 19 30 28 58
30 34 46 -98 64 -84 11 -122 24 -122 41 0 6 25 11 55 11 30 1 60 3 65 4 6 1
20 3 32 4 40 2 9 13 -48 17 -31 3 -61 7 -68 11 -6 4 -25 6 -43 4 -23 -2 -35 2
-39 13 -5 13 -10 14 -20 5 -10 -9 -21 -4 -45 20 -17 18 -28 35 -25 39 4 3 11
0 15 -7 7 -11 11 -10 20 5 11 18 11 18 27 -1 14 -19 16 -19 28 -2 16 21 25 21
47 1 16 -14 19 -14 39 6 17 17 29 21 52 16 16 -3 38 -1 48 4 11 6 32 11 47 11
37 2 93 21 93 32 0 4 -5 5 -11 2 -5 -4 -18 -1 -27 7 -9 8 -34 23 -55 33 -35
18 -36 21 -17 29 30 13 24 34 -14 52 -24 12 -32 21 -29 35 4 12 -1 21 -13 25
-11 4 -29 16 -41 27 -19 17 -31 19 -88 13 -72 -7 -83 3 -41 39 27 22 47 105
26 105 -7 0 -9 12 -4 38 8 44 31 82 49 82 7 0 15 12 18 28 15 75 27 124 32
133 10 15 61 10 77 -8 8 -10 40 -63 71 -118 30 -55 74 -118 96 -140 23 -21 41
-44 41 -50 0 -6 26 -42 58 -81 85 -101 124 -161 120 -186 -3 -22 -9 -25 -93
-44 -16 -3 -24 -9 -17 -11 19 -7 14 -61 -8 -80 -36 -31 -21 -35 18 -5 20 16
48 35 61 42 21 11 26 10 42 -11 10 -13 19 -32 19 -41 0 -27 11 -48 25 -48 13
0 65 127 65 158 0 10 7 28 16 40 15 22 14 26 -17 75 -47 76 -83 140 -85 154
-1 6 10 16 25 21 102 38 127 51 160 78 51 44 87 121 112 239 32 147 50 162 68
56z m-1617 44 c0 -5 -5 -11 -11 -13 -6 -2 -11 4 -11 13 0 9 5 15 11 13 6 -2
11 -8 11 -13z m-667 -167 c-11 -56 -16 -68 -25 -63 -8 5 17 95 27 95 2 0 2
-15 -2 -32z m745 -39 c0 -10 5 -21 10 -24 6 -4 8 -10 6 -14 -8 -12 12 -34 34
-38 11 -2 30 -12 42 -23 12 -10 26 -16 32 -13 15 10 56 10 56 1 0 -4 24 -8 53
-8 49 0 77 -12 77 -32 0 -4 -6 -8 -14 -8 -7 0 -19 -7 -26 -15 -7 -8 -31 -20
-53 -26 -72 -19 -144 15 -192 91 -22 34 -55 130 -55 154 1 18 30 -27 30 -45z
m-3 -116 c13 -23 41 -57 64 -75 102 -82 109 -90 109 -118 0 -26 -10 -63 -32
-122 -11 -31 -38 -37 -58 -13 -7 8 -18 15 -25 15 -21 0 -93 86 -105 126 -14
49 -25 253 -15 290 7 29 7 29 24 -16 9 -25 26 -64 38 -87z m-766 16 c-10 -23
-10 -23 -10 7 -1 17 2 34 7 38 11 12 14 -18 3 -45z m2954 -380 c8 -48 23 -292
18 -298 -5 -6 -53 41 -53 51 0 5 -10 24 -23 41 -29 41 -47 93 -47 140 0 28 8
45 34 72 46 47 63 45 71 -6z m-2055 -129 c0 -11 -4 -20 -10 -20 -5 0 -10 9
-10 20 0 11 5 20 10 20 6 0 10 -9 10 -20z m65 -50 c-3 -5 -10 -10 -16 -10 -5
0 -9 5 -9 10 0 6 7 10 16 10 8 0 12 -4 9 -10z m2116 -330 c25 0 43 -44 29 -71
-16 -28 -46 -24 -58 9 -24 62 -25 75 -7 69 9 -4 25 -7 36 -7z m-3393 -1112
c15 -15 15 -43 0 -67 -9 -15 -16 -17 -30 -10 -21 11 -24 53 -5 74 15 18 20 18
35 3z m612 -820 c-14 -60 -50 -144 -71 -167 -32 -34 -53 -23 -63 33 l-10 48
67 65 c36 35 71 62 76 59 5 -3 6 -20 1 -38z m-387 -205 c3 -5 7 -23 9 -42 3
-33 1 -35 -41 -49 -43 -14 -44 -14 -62 9 -19 24 -19 24 19 56 35 31 66 41 75
26z m195 -170 c74 -59 77 -146 9 -235 -53 -69 -116 -102 -203 -106 -62 -4 -79
-1 -110 18 -127 79 -81 255 88 336 74 35 163 30 216 -13z m112 -174 c-10 -34
-20 -50 -20 -31 0 14 18 62 24 62 3 0 1 -14 -4 -31z"/>
<path d="M14876 6365 c4 -8 11 -15 16 -15 6 0 5 6 -2 15 -7 8 -14 15 -16 15
-2 0 -1 -7 2 -15z"/>
<path d="M11844 7421 c-51 -13 -180 -89 -213 -126 -34 -39 -55 -81 -70 -141
-18 -70 -42 -323 -43 -459 l0 -130 -38 -37 c-21 -21 -47 -38 -58 -38 -44 0
-52 -10 -52 -66 0 -41 8 -70 30 -113 27 -54 33 -60 70 -66 47 -8 67 -32 74
-90 3 -22 15 -115 28 -207 l22 -167 -27 -78 c-18 -54 -27 -99 -27 -142 0 -60
5 -74 86 -237 47 -96 90 -177 96 -180 5 -3 12 2 14 13 3 10 20 29 39 41 23 16
35 34 40 58 3 19 10 32 15 29 4 -3 24 17 44 45 20 27 40 50 46 50 5 0 13 12
16 26 10 38 62 86 145 131 91 50 135 102 161 191 11 36 37 105 58 153 21 47
41 107 45 133 7 45 6 47 -36 86 -51 45 -95 52 -124 20 -38 -42 -121 -14 -193
64 -31 33 -42 54 -42 77 0 31 29 143 52 203 22 56 112 68 146 19 40 -58 60
-73 102 -73 77 0 139 49 140 111 0 67 -39 85 -205 94 -117 6 -135 10 -185 36
-74 40 -125 71 -147 91 -10 8 -28 19 -40 22 -21 7 -23 13 -22 84 1 84 10 103
64 128 16 7 37 18 45 23 42 26 113 36 245 36 136 0 142 -1 218 -34 59 -25 84
-42 100 -67 12 -19 26 -34 30 -34 5 0 7 55 5 123 -3 118 -4 124 -35 173 -33
51 -142 137 -236 186 -73 38 -294 60 -383 39z m-246 -990 c30 -15 52 -17 124
-13 l87 4 18 -36 c26 -56 6 -84 -87 -124 -57 -25 -152 -12 -192 26 -24 22 -28
34 -28 80 0 40 5 58 18 68 22 17 16 17 60 -5z m582 -444 c50 -68 39 -136 -26
-157 -39 -13 -60 -2 -92 52 -9 15 -28 32 -44 39 -24 10 -28 17 -28 49 0 41 9
48 85 59 58 9 71 3 105 -42z"/>
<path d="M17697 6470 c-16 -5 -50 -25 -75 -45 -26 -20 -83 -54 -127 -75 -65
-31 -96 -55 -166 -127 -48 -48 -118 -131 -157 -185 -39 -53 -76 -99 -82 -103
-6 -4 -26 -40 -45 -80 -18 -40 -37 -75 -43 -79 -6 -3 -14 -21 -18 -39 -3 -17
-17 -52 -30 -77 -12 -25 -38 -86 -57 -135 -19 -50 -44 -108 -56 -130 -11 -22
-21 -50 -21 -62 0 -47 -41 -169 -75 -224 -19 -31 -35 -69 -35 -84 0 -15 -6
-39 -14 -53 -8 -15 -17 -39 -20 -54 -5 -23 -9 -26 -29 -19 -12 4 -27 6 -33 4
-5 -2 -20 18 -32 44 -12 27 -29 57 -38 68 -15 19 -16 19 -29 2 -7 -11 -17 -49
-21 -85 -9 -86 3 -302 19 -339 14 -32 84 -98 140 -132 21 -13 39 -33 42 -47 3
-13 8 -36 11 -51 8 -38 66 -93 99 -93 63 0 85 -40 85 -156 0 -63 -4 -82 -31
-131 -17 -32 -39 -67 -49 -78 -34 -37 -79 -139 -81 -185 -5 -82 1 -146 15
-166 14 -19 15 -19 40 5 24 23 26 31 26 115 0 77 4 97 23 128 28 46 61 71 113
86 110 32 187 -4 221 -103 l15 -45 83 0 c80 0 84 -1 108 -30 14 -16 31 -46 38
-67 21 -65 53 -118 74 -121 57 -11 81 -69 96 -231 6 -76 8 -136 3 -141 -5 -5
-28 -4 -52 2 -32 8 -46 8 -54 0 -16 -16 -27 -243 -28 -562 0 -268 -7 -336 -45
-431 -15 -41 -59 -219 -70 -289 -4 -25 -14 -63 -22 -85 -23 -65 -86 -306 -95
-365 -5 -30 -13 -116 -17 -190 -10 -152 -19 -205 -62 -358 -27 -94 -30 -117
-24 -187 8 -92 -9 -188 -57 -330 -27 -82 -29 -97 -24 -177 8 -102 1 -122 -48
-138 -19 -6 -40 -18 -46 -26 -11 -12 133 -14 1124 -14 l1136 0 0 65 0 65 -32
-8 c-18 -4 -53 -7 -78 -7 -54 0 -55 3 -15 120 49 143 75 207 100 240 18 23 25
44 25 78 0 45 0 46 -37 52 -21 4 -72 15 -113 25 -41 10 -97 21 -125 25 -77 10
-144 35 -156 56 -7 14 -7 41 2 93 13 84 6 108 -28 95 -21 -8 -63 -82 -63 -111
0 -8 -9 -31 -20 -53 -11 -21 -25 -54 -31 -73 -6 -19 -39 -63 -73 -97 -33 -34
-74 -79 -89 -99 -47 -61 -63 -48 -110 94 -13 41 -32 111 -41 155 -28 143 -55
299 -61 355 -5 46 -40 229 -100 530 -7 36 -23 102 -34 147 -23 89 -26 157 -11
248 5 33 14 175 20 315 12 306 26 530 40 625 37 254 68 424 100 535 45 162
141 480 158 530 11 30 36 89 54 130 19 41 45 107 58 145 28 87 56 135 80 135
9 0 34 -7 53 -15 20 -8 61 -15 90 -15 30 0 74 7 97 15 23 8 61 15 83 15 36 0
47 6 89 50 50 52 53 63 48 158 -1 24 4 97 10 162 11 105 11 124 -4 169 -9 27
-16 58 -16 68 0 11 -4 23 -9 29 -16 16 -51 117 -51 147 0 33 -60 155 -106 215
-18 24 -42 67 -53 96 -11 29 -34 77 -52 107 -60 100 -96 174 -103 212 -5 27
-29 64 -84 127 -42 49 -87 102 -99 118 -12 15 -41 41 -65 57 -23 16 -64 47
-89 70 -131 114 -191 151 -351 215 -123 50 -260 76 -311 60z m135 -464 c81 -6
138 -33 194 -91 32 -34 42 -53 48 -91 9 -72 -13 -97 -89 -104 -44 -4 -61 -11
-76 -29 -24 -29 -24 -37 2 -104 16 -42 28 -58 55 -71 43 -20 81 -20 127 -1 20
8 42 13 49 11 7 -3 25 -7 40 -10 39 -9 78 -79 78 -140 0 -26 -9 -66 -19 -89
-10 -23 -22 -76 -26 -117 -14 -142 -101 -318 -183 -372 -43 -27 -53 -29 -117
-25 -82 5 -150 35 -168 74 -11 24 -8 28 30 63 48 42 49 63 6 89 -58 36 -50
115 14 156 18 11 32 25 33 31 0 5 -16 25 -35 44 -19 18 -43 52 -54 75 -18 38
-18 46 -6 82 22 63 28 154 15 216 -9 47 -18 63 -53 92 -41 36 -117 65 -168 65
-50 0 -59 9 -59 59 0 56 26 116 69 158 40 41 77 44 293 29z m-243 -602 c46 -9
43 -55 -7 -110 -62 -68 -108 -69 -137 -3 -25 54 -12 101 30 110 42 9 77 10
114 3z m277 -1069 c4 -8 10 -12 15 -9 5 3 9 2 8 -3 -8 -31 56 -174 80 -180 20
-5 31 -41 31 -100 0 -66 -104 -213 -151 -213 -44 0 -100 71 -127 160 -12 41
-28 89 -34 105 -6 17 -13 50 -16 74 -4 44 -4 45 68 113 73 68 114 86 126 53z
m-690 -46 c31 -25 99 -246 99 -321 0 -71 -19 -94 -88 -101 -44 -4 -49 -3 -69
27 -12 17 -38 49 -58 72 -44 48 -64 103 -56 147 9 46 48 127 81 165 23 27 33
32 54 27 14 -4 31 -11 37 -16z m894 -559 c25 -25 27 -107 3 -157 -20 -43 -32
-48 -77 -33 -29 9 -37 18 -42 47 -6 34 1 131 10 141 4 4 57 18 79 21 4 1 16
-8 27 -19z m-90 -1713 c88 -24 100 -46 100 -192 0 -66 5 -199 12 -297 13 -198
8 -227 -45 -254 -34 -18 -269 -38 -335 -29 -65 9 -74 32 -84 194 -4 75 -13
213 -19 306 -21 311 -29 299 176 291 77 -3 165 -11 195 -19z"/>
<path d="M11215 5346 c-29 -27 -65 -130 -65 -186 0 -20 -13 -61 -30 -93 -16
-32 -30 -67 -30 -77 0 -22 28 -40 63 -40 14 0 46 -15 73 -32 41 -28 50 -42 67
-93 38 -117 53 -118 51 -1 -2 97 -11 117 -63 151 -97 61 -113 152 -48 285 21
41 37 82 37 92 0 25 -24 22 -55 -6z"/>
<path d="M12188 5203 c-70 -75 -89 -182 -47 -263 29 -55 50 -50 67 15 14 57
31 231 24 258 -6 23 -14 22 -44 -10z"/>
<path d="M10907 4783 c-11 -10 -8 -83 3 -83 6 0 10 20 10 45 0 46 -2 50 -13
38z"/>
<path d="M18817 3972 c-23 -25 -22 -33 15 -105 17 -34 52 -114 78 -177 32 -79
53 -116 65 -119 14 -2 17 1 11 20 -3 13 -15 71 -26 129 -11 58 -33 141 -49
185 -24 67 -33 80 -53 83 -14 2 -31 -5 -41 -16z"/>
<path d="M15890 3458 c0 -9 70 -40 82 -36 4 2 -12 12 -37 24 -25 11 -45 17
-45 12z"/>
<path d="M15795 3421 c-90 -23 -136 -72 -160 -171 -10 -39 -15 -73 -12 -76 2
-3 10 18 17 45 6 28 21 62 32 76 18 23 26 25 101 25 65 0 92 -5 133 -24 85
-39 113 -96 140 -279 10 -70 25 -133 41 -167 l26 -55 8 32 c6 21 16 33 31 35
20 3 21 8 19 90 -5 213 -24 289 -91 370 -57 69 -204 120 -285 99z"/>
<path d="M16190 2945 c0 -54 3 -95 6 -92 7 7 5 179 -2 186 -2 2 -4 -40 -4 -94z"/>
<path d="M18740 2534 c-20 -52 -5 -72 45 -60 19 5 25 13 25 34 0 53 -53 73
-70 26z"/>
<path d="M15602 2345 c0 -16 2 -22 5 -12 2 9 2 23 0 30 -3 6 -5 -1 -5 -18z"/>
<path d="M19054 2188 c-29 -14 -44 -49 -44 -108 0 -46 17 -80 40 -80 23 0 63
62 75 118 10 49 -30 89 -71 70z"/>
<path d="M11225 1895 c-97 -48 -198 -122 -243 -175 -55 -65 -105 -151 -94
-162 10 -10 37 -16 119 -28 84 -11 143 -46 257 -151 53 -49 102 -89 109 -89
18 0 64 49 76 83 17 44 13 125 -9 202 -11 38 -20 86 -20 106 0 79 -12 127 -41
158 -15 17 -31 41 -35 53 -14 47 -30 48 -119 3z"/>
<path d="M14035 1875 c-5 -2 -49 -6 -96 -10 -82 -6 -120 -17 -107 -30 3 -3 44
-1 89 5 46 7 95 13 109 15 14 2 32 4 40 4 13 1 13 2 0 11 -16 10 -19 11 -35 5z"/>
<path d="M14118 1873 c7 -3 16 -2 19 1 4 3 -2 6 -13 5 -11 0 -14 -3 -6 -6z"/>
<path d="M15840 1860 c-36 -4 -159 -18 -275 -29 -115 -12 -223 -28 -240 -35
-16 -8 -82 -19 -145 -25 -63 -7 -151 -16 -195 -21 -189 -21 -203 -22 -217 -4
-52 65 -43 62 -189 58 -74 -2 -139 -4 -146 -4 -7 0 -24 -20 -38 -44 -14 -23
-33 -50 -43 -58 -12 -11 -86 -23 -257 -41 -394 -43 -360 -42 -383 -12 -24 31
-41 31 -77 3 -16 -12 -51 -25 -79 -29 -59 -9 -278 -37 -384 -49 -89 -10 -119
-28 -127 -75 -3 -19 -8 -51 -11 -71 -3 -19 -11 -86 -19 -147 -57 -469 -83
-607 -113 -607 -10 0 -12 -7 -8 -24 3 -14 1 -28 -5 -32 -8 -5 -6 -10 5 -16 28
-16 22 -88 -22 -273 -16 -65 -116 -34 -239 75 -73 66 -105 80 -135 61 -22 -14
-28 -11 -32 16 -2 10 -11 18 -22 18 -30 1 -44 14 -44 40 0 20 -6 24 -42 29
-24 3 -59 8 -78 12 -19 3 -69 8 -111 11 -64 4 -84 1 -123 -18 -59 -27 -106
-84 -151 -184 -35 -75 -95 -304 -95 -359 l0 -26 1898 2 1898 3 49 26 c55 28
55 31 39 136 -9 65 -79 112 -179 121 -40 3 -82 16 -126 38 -115 57 -100 82 52
90 57 2 111 7 119 9 10 3 28 46 49 118 45 155 99 331 121 397 71 213 174 536
172 543 -1 4 5 10 13 13 8 3 13 10 10 15 -3 4 -3 20 1 34 5 19 11 24 23 20 39
-16 44 -15 19 1 -16 10 -28 26 -28 36 0 9 16 61 35 115 38 106 42 131 23 138
-32 10 -89 11 -148 5z m-1114 -1421 c13 -21 -19 -39 -59 -32 -42 6 -48 19 -14
33 31 12 65 12 73 -1z m-296 -239 c8 -5 12 -12 9 -15 -8 -8 -39 5 -39 16 0 11
11 11 30 -1z"/>
<path d="M16328 1758 c-18 -16 -62 -78 -57 -82 2 -2 13 -8 24 -14 11 -6 20
-18 20 -26 0 -9 3 -16 8 -16 4 0 16 0 26 0 32 0 81 48 81 79 0 52 -64 89 -102
59z m80 -31 c4 -19 -6 -21 -27 -8 -16 10 -5 34 12 28 7 -2 13 -11 15 -20z"/>
<path d="M12276 1294 c-9 -24 -7 -129 3 -139 24 -26 51 -89 51 -120 0 -38 -18
-47 -41 -19 -22 27 -130 76 -156 71 -32 -6 -105 12 -251 62 -128 44 -159 46
-122 6 29 -31 55 -40 183 -65 136 -27 167 -40 213 -90 21 -22 47 -43 59 -46
13 -3 29 -21 38 -42 15 -33 74 -131 94 -157 11 -13 50 -95 58 -119 4 -16 12
-18 47 -12 53 9 71 23 64 52 -4 13 -2 26 4 29 18 11 11 37 -30 108 -28 49 -38
73 -30 81 7 7 10 6 10 -2 0 -7 7 -12 15 -12 19 0 20 71 1 195 -17 111 -35 175
-51 175 -16 0 -93 38 -100 50 -10 16 -52 12 -59 -6z"/>
<path d="M16198 983 c7 -3 16 -2 19 1 4 3 -2 6 -13 5 -11 0 -14 -3 -6 -6z"/>
<path d="M16240 931 c-81 -5 -95 -9 -98 -24 -3 -17 2 -18 50 -13 66 8 376 26
442 26 27 0 47 2 45 4 -8 7 -346 13 -439 7z"/>
<path d="M16168 305 c20 -83 0 -245 -32 -245 -6 0 -24 -14 -40 -30 l-29 -30
91 0 92 0 0 34 c0 19 -5 47 -11 63 -5 15 -17 58 -25 96 -7 37 -23 84 -34 105
-19 34 -19 35 -12 7z"/>
<path d="M15958 3 c12 -2 30 -2 40 0 9 3 -1 5 -23 4 -22 0 -30 -2 -17 -4z"/>
</g>
</svg>
